<svg aria-hidden="true" style="position: absolute; width: 0; height: 0; overflow: hidden;" version="1.1" xmlns="http://www.w3.org/2000/svg" xmlns:xlink="http://www.w3.org/1999/xlink">
<defs>
<symbol id="icon-1" viewBox="0 0 32 32">
<path d="M12.904 23.999h6.192v0.998h-6.192zM12.904 25.391h6.192v0.998h-6.192zM13.832 26.783h4.336v0.998h-4.336zM18.655 8.278h-5.315l-1.383 1.941 4.040 3.937 4.045-3.937-1.387-1.941zM13.218 7.781h5.7l0.075 0.103 1.584 2.217 0.122 0.173-0.15 0.15-4.373 4.251-0.173 0.173-0.173-0.173-4.523-4.401 0.127-0.173 1.584-2.217 0.075-0.103h0.127z"></path>
<path d="M11.629 9.998h8.517v0.497h-8.517z"></path>
<path d="M15.581 8.259l-1.626 2.137-0.394-0.3 1.622-2.137zM16.593 7.959l1.626 2.137-0.398 0.3-1.622-2.137z"></path>
<path d="M18.243 10.354l-2.016 4.251-0.455-0.211 2.020-4.256z"></path>
<path d="M14.207 10.139l2.020 4.256-0.455 0.211-2.020-4.251z"></path>
<path d="M15.998 3.501c2.030 0 3.867 0.82 5.193 2.151 1.331 1.327 2.151 3.164 2.151 5.189 0 2.264-0.816 3.215-1.758 4.308-1.13 1.312-2.461 2.859-2.461 7.851v0.497h-6.248v-0.497c0-4.997-1.331-6.539-2.461-7.851-0.937-1.092-1.758-2.044-1.758-4.308 0-2.025 0.82-3.862 2.151-5.189 1.326-1.332 3.161-2.156 5.189-2.156 0 0 0 0 0 0v0zM20.483 6.361c-1.146-1.15-2.731-1.861-4.482-1.861-0.001 0-0.003 0-0.004 0h0c-0.004 0-0.009-0-0.014-0-3.495 0-6.328 2.833-6.328 6.328 0 0.005 0 0.010 0 0.015v-0.001c0 1.898 0.703 2.719 1.514 3.656 1.2 1.397 2.611 3.033 2.7 8.001h4.261c0.084-4.968 1.5-6.609 2.7-8.001 0.811-0.937 1.514-1.758 1.514-3.656 0-0.001 0-0.002 0-0.004 0-1.751-0.711-3.336-1.861-4.482l-0-0z"></path>
<path d="M14.873 13.157v9.843h-0.502v-9.843zM17.751 13.157v9.843h-0.502v-9.843z"></path>
</symbol>
<symbol id="icon-2" viewBox="0 0 29 32">
<path d="M26 32h-1.333v-4.473c-0.001-0.088-0.002-0.192-0.002-0.297 0-3.291 0.776-6.4 2.156-9.155l-0.054 0.118c0.779-1.552 1.235-3.383 1.235-5.32 0-0.073-0.001-0.145-0.002-0.218l0 0.011c0-0.036 0.001-0.077 0.001-0.119 0-2.853-1.059-5.459-2.805-7.447l0.011 0.013c-1.579-1.782-3.706-3.046-6.116-3.528l-0.071-0.012c-0.707-0.157-1.519-0.247-2.352-0.247-5.829 0-10.631 4.401-11.263 10.062l-0.005 0.051c-0.106 1.062-0.415 2.032-0.887 2.9l0.020-0.040-2.92 5.333 2.213 0.887c0.497 0.201 0.84 0.68 0.84 1.239 0 0.010-0 0.020-0 0.029l0-0.001v4.213h4.667c0.736 0 1.333 0.597 1.333 1.333v0 4.667h-1.333v-4.667h-4.667c-0.736 0-1.333-0.597-1.333-1.333v0-4.213l-2.913-1.167c-0.177-0.072-0.314-0.213-0.379-0.389l-0.002-0.005c-0.026-0.068-0.041-0.147-0.041-0.229 0-0.116 0.030-0.226 0.082-0.321l-0.002 0.003 3.287-6c0.367-0.68 0.618-1.475 0.704-2.32l0.002-0.027c0.694-6.401 6.069-11.34 12.597-11.34 0.927 0 1.83 0.1 2.7 0.288l-0.084-0.015c2.775 0.553 5.155 1.97 6.909 3.953l0.011 0.013c1.942 2.204 3.127 5.115 3.127 8.303 0 0.046-0 0.091-0.001 0.137l0-0.007c0.001 0.051 0.001 0.111 0.001 0.17 0 2.161-0.507 4.203-1.41 6.015l0.035-0.078c-1.238 2.464-1.962 5.37-1.962 8.445 0 0.108 0.001 0.216 0.003 0.324l-0-0.016z"></path>
<path d="M10 6h13.333v1.333h-13.333zM10 20.667h13.333v1.333h-13.333z"></path>
<path d="M21.333 22h-9.333c-0.368 0-0.667-0.298-0.667-0.667v0-3.333c0-0 0-0.001 0-0.001 0-0.162 0.058-0.311 0.154-0.426l-0.001 0.001 2.98-3.573-2.98-3.573c-0.095-0.114-0.153-0.263-0.153-0.425 0-0 0-0.001 0-0.001v0-3.333c0-0.368 0.298-0.667 0.667-0.667v0h9.333c0.368 0 0.667 0.298 0.667 0.667v0 3.333c0 0 0 0.001 0 0.001 0 0.162-0.058 0.311-0.154 0.426l0.001-0.001-2.98 3.573 2.98 3.573c0.095 0.114 0.153 0.263 0.153 0.425 0 0 0 0.001 0 0.001v-0 3.333c0 0.368-0.298 0.667-0.667 0.667v0zM12.667 20.667h8v-2.427l-3.18-3.813c-0.096-0.115-0.154-0.264-0.154-0.427s0.058-0.312 0.155-0.428l-0.001 0.001 3.18-3.813v-2.427h-8v2.427l3.18 3.813c0.096 0.115 0.154 0.264 0.154 0.427s-0.058 0.312-0.155 0.428l0.001-0.001-3.18 3.813z"></path>
</symbol>
<symbol id="icon-3" viewBox="0 0 32 32">
<path d="M21.138 24.942h-10.294l-0.031-0.466c-0.053-0.786-0.219-1.859-0.709-2.511-3.671-4.725-3.774-9.242-3.774-9.287 0-5.332 4.338-9.67 9.67-9.67s9.671 4.338 9.671 9.67c0 0.044-0.103 4.556-3.78 9.293-0.488 0.648-0.66 1.722-0.718 2.508l-0.034 0.463zM11.768 23.942h8.451c0.102-0.852 0.339-1.866 0.876-2.578 3.477-4.479 3.575-8.645 3.575-8.685 0-4.781-3.89-8.67-8.671-8.67s-8.67 3.889-8.67 8.67c0 0.041 0.097 4.211 3.569 8.679 0.455 0.605 0.745 1.472 0.87 2.585z"></path>
<path d="M9.762 12.644l-1-0c0.001-3.972 3.248-7.203 7.238-7.203v1c-3.439 0-6.237 2.783-6.238 6.204zM12.239 14.249l1.816 10.078-0.984 0.177-1.816-10.078zM19.762 14.25l0.984 0.178-1.814 10.079-0.985-0.177z"></path>
<path d="M13.201 16.105l-1.564-0.55 0.332-0.944 1.232 0.434 1.398-0.492 1.398 0.492 1.399-0.492 1.4 0.492 1.234-0.434 0.331 0.944-1.566 0.55-1.4-0.492-1.399 0.492-1.398-0.492zM10.037 24.050h11.925v1h-11.925zM10.037 26.367h11.925v1h-11.925zM10.037 28.683h11.925v1h-11.925zM11.659 31h8.682v1h-8.682z"></path>
<path d="M10.922 24.673h1v4.402h-1zM15.5 0h1v1.818h-1zM13.216 0.301l0.471 1.756-0.966 0.259-0.471-1.756zM10.121 1.441l0.909 1.574-0.866 0.5-0.909-1.575zM7.426 3.345l1.286 1.286-0.707 0.707-1.285-1.286zM5.316 5.88l1.575 0.91-0.5 0.866-1.575-0.91zM3.933 8.875l1.756 0.471-0.259 0.966-1.756-0.471zM3.374 12.126h1.818v1h-1.818zM5.431 14.939l0.258 0.966-1.756 0.47-0.259-0.966zM6.39 17.596l0.5 0.866-1.575 0.909-0.5-0.866zM8.003 19.914l0.707 0.707-1.286 1.286-0.707-0.707zM23.994 19.915l1.285 1.286-0.707 0.707-1.285-1.286zM25.611 17.598l1.574 0.909-0.5 0.866-1.574-0.909zM26.57 14.94l1.756 0.47-0.259 0.966-1.756-0.47zM26.808 12.127h1.818v1h-1.818zM28.067 8.875l0.259 0.966-1.756 0.47-0.259-0.966zM26.683 5.88l0.5 0.866-1.575 0.909-0.5-0.866zM24.575 3.345l0.707 0.707-1.286 1.286-0.707-0.707zM21.881 1.442l0.866 0.5-0.909 1.575-0.866-0.5zM18.785 0.301l0.966 0.259-0.471 1.756-0.966-0.259z"></path>
</symbol>
<symbol id="icon-tiktok" viewBox="0 0 32 32">
<path d="M28.145 0.060h-24.289c-2.093 0-3.795 1.702-3.795 3.795v24.289c0 2.093 1.702 3.795 3.795 3.795h24.289c2.093 0 3.795-1.702 3.795-3.795v-24.289c0-2.093-1.702-3.795-3.795-3.795zM25.113 13.968c-0.156 0.016-0.338 0.026-0.522 0.026h-0.001c-0 0-0 0-0.001 0-1.982 0-3.726-1.014-4.744-2.551l-0.013-0.021v8.757c0 3.575-2.898 6.472-6.472 6.472s-6.472-2.898-6.472-6.472c0-3.575 2.898-6.472 6.472-6.472v0c0.135 0 0.267 0.012 0.4 0.020v3.19c-0.133-0.016-0.263-0.040-0.4-0.040-1.825 0-3.303 1.479-3.303 3.303s1.479 3.303 3.303 3.303v0c1.825 0 3.436-1.438 3.436-3.262l0.032-14.873h3.048c0.295 2.731 2.488 4.867 5.219 5.073l0.019 0.001v3.545z"></path>
</symbol>
<symbol id="icon-telegram" viewBox="0 0 32 32">
<path d="M32 0l-32 18 10.227 3.787 15.773-14.787-11.997 16.187 0.009 0.003-0.012-0.003v8.813l5.735-6.691 7.267 2.691 4.999-28z"></path>
</symbol>
<symbol id="icon-instagram" viewBox="0 0 32 32">
<path d="M31.968 9.408c-0.074-1.701-0.349-2.869-0.742-3.882-0.424-1.111-1.054-2.059-1.85-2.837l-0.001-0.001c-0.78-0.792-1.724-1.419-2.778-1.827l-0.054-0.018c-1.019-0.394-2.181-0.667-3.882-0.742-1.712-0.082-2.256-0.101-6.602-0.101-4.344 0-4.888 0.019-6.595 0.094-1.699 0.074-2.869 0.349-3.88 0.742-1.112 0.424-2.060 1.054-2.839 1.85l-0.001 0.001c-0.791 0.78-1.418 1.724-1.825 2.778l-0.018 0.054c-0.395 1.019-0.669 2.181-0.744 3.882-0.082 1.712-0.101 2.256-0.101 6.602 0 4.344 0.019 4.888 0.094 6.595 0.075 1.701 0.35 2.869 0.744 3.882 0.426 1.11 1.055 2.057 1.849 2.837l0.001 0.001c0.8 0.813 1.77 1.443 2.832 1.843 1.019 0.395 2.182 0.67 3.882 0.744 1.707 0.075 2.251 0.094 6.595 0.094 4.346 0 4.89-0.019 6.595-0.094 1.701-0.074 2.869-0.349 3.882-0.742 2.157-0.85 3.833-2.526 4.664-4.628l0.019-0.055c0.394-1.019 0.669-2.182 0.744-3.882 0.075-1.707 0.093-2.251 0.093-6.595s-0.006-4.888-0.080-6.595zM29.088 22.474c-0.070 1.563-0.333 2.406-0.55 2.97-0.552 1.399-1.64 2.486-3.004 3.024l-0.036 0.012c-0.56 0.219-1.411 0.482-2.968 0.55-1.688 0.075-2.194 0.094-6.464 0.094-4.269 0-4.782-0.019-6.464-0.094-1.563-0.069-2.406-0.331-2.97-0.55-0.721-0.269-1.334-0.676-1.836-1.192l-0.001-0.001c-0.517-0.503-0.924-1.117-1.184-1.803l-0.011-0.034c-0.218-0.563-0.48-1.413-0.549-2.97-0.075-1.688-0.094-2.195-0.094-6.464 0-4.27 0.019-4.784 0.094-6.464 0.069-1.563 0.331-2.406 0.549-2.97 0.269-0.722 0.678-1.337 1.198-1.837l0.002-0.002c0.504-0.517 1.119-0.923 1.806-1.182l0.034-0.011c0.56-0.219 1.411-0.48 2.968-0.55 1.688-0.074 2.195-0.093 6.464-0.093 4.275 0 4.782 0.019 6.464 0.093 1.563 0.069 2.406 0.331 2.97 0.55 0.693 0.256 1.325 0.662 1.837 1.194 0.531 0.52 0.938 1.144 1.195 1.84 0.218 0.56 0.48 1.411 0.549 2.968 0.075 1.688 0.094 2.194 0.094 6.464 0 4.269-0.019 4.768-0.094 6.458z"></path>
<path d="M16.059 7.782c-4.539 0.002-8.218 3.682-8.219 8.221v0c0.091 4.471 3.737 8.060 8.221 8.060s8.13-3.589 8.221-8.052l0-0.009c-0.001-4.54-3.681-8.22-8.221-8.221h-0zM16.059 21.334c-2.945-0-5.332-2.388-5.332-5.333s2.388-5.333 5.333-5.333c0 0 0.001 0 0.001 0h-0c2.946 0 5.334 2.388 5.334 5.334s-2.388 5.334-5.334 5.334v0zM26.525 7.458c0 1.060-0.86 1.92-1.92 1.92s-1.92-0.86-1.92-1.92v0c0-1.060 0.86-1.92 1.92-1.92s1.92 0.86 1.92 1.92v0z"></path>
</symbol>
<symbol id="icon-discord" viewBox="0 0 32 32">
<path d="M27.107 5.637c-1.908-0.917-4.123-1.638-6.444-2.051l-0.158-0.023c-0.284 0.514-0.617 1.206-0.846 1.756-2.462-0.37-4.9-0.37-7.317 0-0.229-0.55-0.569-1.242-0.856-1.756-2.481 0.437-4.697 1.16-6.763 2.147l0.157-0.067c-4.178 6.314-5.311 12.47-4.744 18.54 2.771 2.069 5.457 3.326 8.097 4.149 0.607-0.825 1.183-1.76 1.681-2.741l0.053-0.115c-1.056-0.406-1.955-0.852-2.806-1.372l0.075 0.043c0.259-0.192 0.477-0.366 0.689-0.546l-0.020 0.016c5.265 2.463 10.986 2.463 16.189 0 0.188 0.158 0.406 0.332 0.628 0.5l0.041 0.030c-0.777 0.478-1.678 0.926-2.62 1.292l-0.116 0.040c0.501 1.003 1.080 1.959 1.734 2.856 2.643-0.823 5.331-2.080 8.102-4.152 0.665-7.036-1.135-13.136-4.757-18.545zM10.684 20.449c-1.581 0-2.877-1.476-2.877-3.273s1.269-3.275 2.877-3.275c1.608 0 2.905 1.476 2.877 3.275 0.002 1.797-1.268 3.273-2.877 3.273zM21.316 20.449c-1.581 0-2.877-1.476-2.877-3.273s1.268-3.275 2.877-3.275c1.608 0 2.904 1.476 2.877 3.275 0 1.797-1.268 3.273-2.877 3.273z"></path>
</symbol>
<symbol id="icon-phone" viewBox="0 0 32 32">
<path d="M24.882 19.774l-3.268-0.373c-0.090-0.011-0.194-0.018-0.3-0.018-0.707 0-1.347 0.287-1.81 0.75l-2.368 2.368c-3.669-1.894-6.585-4.81-8.427-8.372l-0.051-0.108 2.382-2.377c0.463-0.463 0.75-1.103 0.75-1.81 0-0.106-0.006-0.21-0.019-0.312l0.001 0.012-0.373-3.243c-0.155-1.287-1.24-2.276-2.557-2.276-0.001 0-0.002 0-0.003 0h-2.226c-1.454 0-2.663 1.209-2.574 2.661 0.683 10.987 9.47 19.762 20.444 20.444 1.452 0.089 2.663-1.12 2.663-2.574v-2.226c0-0.004 0-0.008 0-0.012 0-1.308-0.985-2.386-2.253-2.532l-0.012-0.001z"></path>
</symbol>
<symbol id="icon-email" viewBox="0 0 32 32">
<path d="M26.667 5.333h-21.333c-1.467 0-2.652 1.2-2.652 2.667l-0.014 16c0 1.467 1.2 2.667 2.667 2.667h21.333c1.467 0 2.667-1.2 2.667-2.667v-16c0-1.467-1.2-2.667-2.667-2.667zM26.133 11.001l-9.426 5.892c-0.201 0.126-0.446 0.2-0.708 0.2s-0.506-0.075-0.713-0.204l0.006 0.003-9.426-5.892c-0.336-0.201-0.557-0.562-0.557-0.975 0-0.625 0.507-1.132 1.132-1.132 0.233 0 0.449 0.070 0.629 0.19l-0.004-0.003 8.933 5.586 8.933-5.588c0.176-0.118 0.392-0.188 0.624-0.188 0.625 0 1.132 0.507 1.132 1.132 0 0.413-0.221 0.775-0.552 0.972l-0.005 0.003z"></path>
</symbol>
<symbol id="icon-xx-1" viewBox="0 0 32 32">
<path stroke-linejoin="round" stroke-linecap="round" stroke-miterlimit="4" stroke-width="2.6667" d="M24 8l-16 16M8 8l16 16"></path>
</symbol>
<symbol id="icon-menumenu-1" viewBox="0 0 32 32">
<path stroke-linejoin="round" stroke-linecap="round" stroke-miterlimit="4" stroke-width="2.6667" d="M4 16h24M4 8h24M4 24h24"></path>
</symbol>
</defs>
</svg>
